<svg id="el_9ZCdIqZwzpN" xmlns="http://www.w3.org/2000/svg" viewBox="0 0 512 512"><style>@-webkit-keyframes el_dbDqiXYUjOy_Animation{0%,83.33%{opacity:1}to{opacity:0}}@keyframes el_dbDqiXYUjOy_Animation{0%,83.33%{opacity:1}to{opacity:0}}@-webkit-keyframes el_H2B3xDMLPup_Animation{0%,66.67%{opacity:1}86.67%,to{opacity:0}}@keyframes el_H2B3xDMLPup_Animation{0%,66.67%{opacity:1}86.67%,to{opacity:0}}@-webkit-keyframes el_TE-0OxO-p8I_Animation{0%,46.67%{opacity:1}70%,to{opacity:0}}@keyframes el_TE-0OxO-p8I_Animation{0%,46.67%{opacity:1}70%,to{opacity:0}}@-webkit-keyframes el_NTrlOuF6H7W_Animation{0%,26.67%{opacity:1}50%,to{opacity:0}}@keyframes el_NTrlOuF6H7W_Animation{0%,26.67%{opacity:1}50%,to{opacity:0}}@-webkit-keyframes el_2rogCnRm6jP_Animation{0%,10%{opacity:1}30%,to{opacity:0}}@keyframes el_2rogCnRm6jP_Animation{0%,10%{opacity:1}30%,to{opacity:0}}#el_9ZCdIqZwzpN *{-webkit-animation-duration:1s;animation-duration:1s;-webkit-animation-iteration-count:infinite;animation-iteration-count:infinite;-webkit-animation-timing-function:cubic-bezier(0,0,1,1);animation-timing-function:cubic-bezier(0,0,1,1)}#el_2rogCnRm6jP_gtERVCile{-webkit-transform-origin:50% 50%;transform-origin:50% 50%;transform-box:fill-box;-webkit-transform:translate(0,0);transform:translate(0,0)}</style><style/><g id="el_hDIcAKP8ndY"><g id="el_EEP9T9gl-8O" fill="#ea1d2e"><path d="M491 41H21C9.424 41 0 50.961 0 62.538v50.121C0 124.234 9.424 134 21 134h470.038c11.577 0 20.962-9.766 20.962-21.341V62.538C512 50.961 502.577 41 491 41z" style="-webkit-animation-name:el_2rogCnRm6jP_Animation;animation-name:el_2rogCnRm6jP_Animation"/><path d="M0 230.242v50.12C0 291.938 9.424 301 21 301h186v-92H21c-11.576 0-21 9.665-21 21.242z" style="-webkit-animation-name:el_NTrlOuF6H7W_Animation;animation-name:el_NTrlOuF6H7W_Animation"/><path d="M491 209H309v92h182c11.577 0 21-9.063 21-20.638v-50.12c0-11.577-9.423-21.242-21-21.242z" style="-webkit-animation-name:el_TE-0OxO-p8I_Animation;animation-name:el_TE-0OxO-p8I_Animation"/><path d="M0 399.344v50.119C0 461.038 9.424 470 21 470h186v-92H21c-11.576 0-21 9.766-21 21.344z" style="-webkit-animation-name:el_H2B3xDMLPup_Animation;animation-name:el_H2B3xDMLPup_Animation"/><path d="M491 378H309v92h182c11.577 0 20.962-9.344 20.962-20.919v-50.119c0-11.578-9.385-20.962-20.962-20.962z" style="-webkit-animation-name:el_dbDqiXYUjOy_Animation;animation-name:el_dbDqiXYUjOy_Animation"/></g></g><script>(function(){var a=document.querySelector(&apos;#el_9ZCdIqZwzpN&apos;),b=a.querySelectorAll(&apos;style&apos;),c=function(d){b.forEach(function(f){var g=f.textContent;g&amp;&amp;(f.textContent=g.replace(/transform-box:[^;\r\n]*/gi,&apos;transform-box: &apos;+d))})};c(&apos;initial&apos;),window.requestAnimationFrame(function(){return c(&apos;fill-box&apos;)})})();</script></svg>
